<svg width="42" height="41" viewBox="0 0 42 41" fill="none" xmlns="http://www.w3.org/2000/svg">
<rect y="0.693359" width="41.3503" height="39.8049" rx="19.9025" fill="#C72094"/>
<path fill-rule="evenodd" clip-rule="evenodd" d="M18.289 22.5517C18.2316 22.3376 18.1776 22.1192 18.1269 21.8965H22.8395C22.7892 22.1189 22.7352 22.3373 22.6773 22.5517H18.289ZM23.2797 22.7131L23.1822 23.0762L23.9083 23.8303L24.4872 20.3086L23.7623 19.863C23.7093 20.797 23.5365 21.7543 23.2797 22.713V22.7131ZM21.6174 24.2389H19.3491C19.2784 24.2389 19.208 24.2301 19.1395 24.2128C19.2628 25.0647 20.0377 25.8386 20.4833 26.5162C20.929 25.8387 21.7039 25.0648 21.8272 24.2128C21.7587 24.2301 21.6883 24.2389 21.6176 24.2389H21.6174ZM19.1152 23.1753V23.3814C19.1154 23.4434 19.1401 23.5028 19.1839 23.5466C19.2277 23.5904 19.2871 23.6151 19.3491 23.6153H21.6174C21.6794 23.6151 21.7388 23.5904 21.7826 23.5466C21.8264 23.5028 21.8511 23.4434 21.8513 23.3814V23.1753H19.1152ZM16.4792 20.3086L17.0581 23.8303L17.7841 23.0762L17.6867 22.7131C17.4298 21.7545 17.2571 20.7972 17.2041 19.8632L16.4792 20.3086ZM15.9726 27.92C16.0553 27.92 16.1347 27.9528 16.1931 28.0113C16.2516 28.0698 16.2845 28.1491 16.2845 28.2318C16.2845 28.3145 16.2516 28.3938 16.1931 28.4523C16.1347 28.5107 16.0553 28.5436 15.9726 28.5436H11.3196C11.2369 28.5436 11.1576 28.5107 11.0991 28.4523C11.0407 28.3938 11.0078 28.3145 11.0078 28.2318C11.0078 28.1491 11.0407 28.0698 11.0991 28.0113C11.1576 27.9528 11.2369 27.92 11.3196 27.92H15.9726ZM29.1237 28.5436L28.6253 28.9328C28.5603 28.9836 28.5182 29.058 28.5081 29.1398C28.4981 29.2215 28.5209 29.3039 28.5716 29.3689C28.6224 29.4338 28.6968 29.4759 28.7786 29.486C28.8603 29.496 28.9427 29.4732 29.0077 29.4225L30.219 28.4766C30.2566 28.4472 30.2868 28.4096 30.3075 28.3666C30.3282 28.3237 30.3388 28.2765 30.3383 28.2288C30.3379 28.1812 30.3265 28.1342 30.305 28.0917C30.2835 28.0491 30.2525 28.012 30.2144 27.9834L29.0078 27.0411C28.9428 26.9904 28.8604 26.9675 28.7786 26.9776C28.6969 26.9876 28.6224 27.0298 28.5717 27.0947C28.521 27.1596 28.4982 27.2421 28.5082 27.3238C28.5183 27.4056 28.5604 27.48 28.6253 27.5307L29.1238 27.92H20.4832C16.1772 27.92 12.6866 24.4294 12.6866 20.1234C12.6859 19.3559 12.7986 18.5925 13.021 17.8578L14.2309 17.2161C14.2673 17.1972 14.2996 17.1713 14.326 17.1399C14.3523 17.1085 14.3722 17.0722 14.3845 17.033C14.3968 16.9939 14.4012 16.9527 14.3975 16.9118C14.3938 16.871 14.382 16.8313 14.3629 16.795C14.3438 16.7587 14.3177 16.7265 14.2861 16.7004C14.2545 16.6742 14.2181 16.6545 14.1789 16.6425C14.1396 16.6305 14.0984 16.6263 14.0576 16.6303C14.0168 16.6343 13.9772 16.6462 13.941 16.6656L13.3457 16.9813C13.9557 15.5968 14.9552 14.4195 16.2225 13.5931C17.4899 12.7666 18.9702 12.3267 20.4832 12.3268C24.7891 12.3268 28.2798 15.8175 28.2798 20.1234C28.2805 20.8908 28.168 21.6541 27.9459 22.3886L26.7357 23.0306C26.6991 23.0494 26.6666 23.0752 26.6401 23.1066C26.6136 23.1381 26.5936 23.1744 26.5812 23.2136C26.5688 23.2528 26.5643 23.2941 26.568 23.3351C26.5717 23.376 26.5834 23.4158 26.6026 23.4522C26.6217 23.4886 26.6479 23.5208 26.6796 23.547C26.7113 23.5732 26.7478 23.5929 26.7872 23.6048C26.8265 23.6168 26.8678 23.6209 26.9087 23.6168C26.9496 23.6128 26.9893 23.6006 27.0255 23.5811L27.6213 23.2651C26.9732 24.7323 25.8902 25.9651 24.5189 26.7969C24.484 26.818 24.4536 26.8458 24.4295 26.8786C24.4053 26.9115 24.3879 26.9488 24.3782 26.9884C24.3685 27.0279 24.3666 27.0691 24.3728 27.1094C24.379 27.1497 24.393 27.1883 24.4141 27.2232C24.4352 27.2581 24.463 27.2884 24.4958 27.3126C24.5287 27.3367 24.566 27.3541 24.6056 27.3639C24.6451 27.3736 24.6863 27.3754 24.7265 27.3693C24.7668 27.3631 24.8055 27.3491 24.8404 27.328C26.284 26.4531 27.4327 25.1663 28.1386 23.6331L28.2636 24.1314C28.2731 24.1714 28.2905 24.2092 28.3147 24.2425C28.339 24.2758 28.3696 24.3039 28.4048 24.3253C28.44 24.3467 28.4791 24.3609 28.5198 24.3671C28.5605 24.3732 28.602 24.3713 28.642 24.3613C28.6819 24.3513 28.7195 24.3335 28.7525 24.3089C28.7855 24.2843 28.8133 24.2534 28.8343 24.2179C28.8553 24.1825 28.8691 24.1433 28.8748 24.1025C28.8805 24.0617 28.8781 24.0202 28.8677 23.9804L28.5266 22.6201C28.7771 21.8115 28.9041 20.9698 28.9033 20.1233C28.9033 15.4731 25.1334 11.7031 20.4831 11.7031C18.871 11.7029 17.2926 12.1655 15.9356 13.0358C14.5786 13.9062 13.4999 15.1478 12.8276 16.6131L12.7029 16.1154C12.6821 16.0361 12.6309 15.9681 12.5604 15.9263C12.4899 15.8845 12.4057 15.8722 12.3261 15.8921C12.2466 15.912 12.1781 15.9625 12.1355 16.0325C12.093 16.1026 12.0798 16.1866 12.0988 16.2664L12.4397 17.6261C12.1892 18.4348 12.0623 19.2768 12.0631 20.1234C12.0631 24.7737 15.833 28.5436 20.4833 28.5436H29.1237ZM20.4831 13.7307C17.7477 15.795 17.5352 18.7151 17.9996 21.2729H22.9668C23.4311 18.7151 23.2186 15.795 20.4831 13.7307ZM20.4831 18.878C20.2519 18.878 20.0258 18.8094 19.8335 18.681C19.6413 18.5525 19.4914 18.3699 19.4029 18.1562C19.3144 17.9426 19.2912 17.7075 19.3364 17.4806C19.3815 17.2538 19.4928 17.0455 19.6564 16.882C19.8199 16.7184 20.0282 16.6071 20.255 16.562C20.4819 16.5168 20.717 16.54 20.9306 16.6285C21.1443 16.717 21.3269 16.8669 21.4554 17.0592C21.5838 17.2514 21.6524 17.4775 21.6524 17.7088C21.6524 18.0189 21.5292 18.3163 21.3099 18.5355C21.0907 18.7548 20.7933 18.878 20.4831 18.878Z" fill="white"/>
</svg>
