<svg width="39" height="39" viewBox="0 0 39 39" fill="none" xmlns="http://www.w3.org/2000/svg">
<mask id="mask0_293_7994" style="mask-type:luminance" maskUnits="userSpaceOnUse" x="0" y="0" width="39" height="39">
<path d="M37.4761 37.6533V1.5111H1.33392V37.6533H37.4761Z" fill="white" stroke="white" stroke-width="1.90222"/>
</mask>
<g mask="url(#mask0_293_7994)">
<path d="M31.0663 8.8079V6.49536C31.0663 4.0331 29.0702 2.03703 26.608 2.03703H12.1927C9.73045 2.03703 7.73438 4.0331 7.73438 6.49536V32.6509C7.73438 35.1132 9.73045 37.1093 12.1927 37.1093H26.608C29.0702 37.1093 31.0663 35.1132 31.0663 32.6509V29.8364" stroke="white" stroke-width="1.90222" stroke-miterlimit="10" stroke-linecap="round"/>
<path d="M18.8652 31.8428C18.8652 32.1383 19.1047 32.3778 19.4002 32.3778C19.6957 32.3778 19.9352 32.1383 19.9352 31.8428C19.9352 31.5473 19.6957 31.3078 19.4002 31.3078C19.1047 31.3078 18.8652 31.5473 18.8652 31.8428Z" fill="#ED1C24" stroke="white" stroke-width="1.90222"/>
<path d="M17.9141 7.32199H20.8863" stroke="white" stroke-width="1.90222" stroke-miterlimit="10" stroke-linecap="round"/>
<path d="M28.3834 13.7905L28.3834 13.7905L25.0081 25.6644C25.0081 25.6644 25.0081 25.6644 25.008 25.6644C24.9567 25.845 24.7073 26.0618 24.3985 26.0618C24.2182 26.0618 24.0907 25.9836 24.0096 25.8696C23.9244 25.7499 23.8809 25.5738 23.9376 25.3743L28.3834 13.7905ZM28.3834 13.7905C28.4786 13.4555 28.2266 13.1029 27.8482 13.1029C27.5939 13.1029 27.3785 13.2701 27.313 13.5003C27.313 13.5003 27.313 13.5003 27.313 13.5003L23.9376 25.3742L28.3834 13.7905Z" fill="#ED1C24" stroke="white" stroke-width="1.90222"/>
<path d="M19.3997 15.0498L15.7196 18.1352C14.781 18.9324 14.781 20.3811 15.7196 21.1782L19.3997 24.2637" stroke="white" stroke-width="1.90222" stroke-miterlimit="10" stroke-linecap="round" stroke-linejoin="round"/>
<path d="M32.625 15.0498L36.2308 18.1352C37.1694 18.9324 37.1694 20.3811 36.2308 21.1782L32.625 24.2637" stroke="white" stroke-width="1.90222" stroke-miterlimit="10" stroke-linecap="round" stroke-linejoin="round"/>
</g>
</svg>
