<svg width="35" height="41" viewBox="0 0 35 41" fill="none" xmlns="http://www.w3.org/2000/svg">
<path d="M24.3359 7.78153C22.3585 6.30703 20.0138 5.53028 17.5635 5.53028C15.1123 5.53028 12.7677 6.30703 10.7907 7.78153C8.81357 9.2563 7.37076 11.2922 6.62459 13.6687C5.11537 18.5011 6.84727 23.7418 10.9467 26.6966C11.47 27.0764 11.7819 27.6885 11.7819 28.3413V29.311C11.7819 30.3034 12.5727 31.1087 13.5476 31.1087L22.3865 31.1143C22.7208 31.1542 22.9772 31.4433 22.9772 31.7838C22.9772 32.1239 22.7208 32.4133 22.3865 32.4527L14.6389 32.4591C14.6335 32.4591 14.6281 32.4591 14.6169 32.4591C14.6114 32.4591 14.606 32.4591 14.5946 32.4591C13.2247 32.5214 12.144 33.661 12.144 35.0621C12.144 36.4626 13.219 37.603 14.5946 37.6654H14.6281L20.9772 37.7278C21.3118 37.7671 21.5679 38.0563 21.5679 38.397C21.5679 38.7371 21.3118 39.0265 20.9772 39.0656L15.3633 39.072C14.8396 39.072 14.4165 39.503 14.4165 40.0358C14.4165 40.5689 14.8396 41 15.3633 41L21.0276 40.9944C21.0502 40.9944 21.0776 40.9944 21.1 40.9889H21.1275C22.448 40.8752 23.4667 39.7409 23.4667 38.4025C23.4667 37.0641 22.4535 35.9353 21.1503 35.8106C21.1443 35.8106 21.1389 35.8106 21.1389 35.8106C21.1335 35.8106 21.122 35.8106 21.1166 35.8106C21.1054 35.8106 21.0943 35.8106 21.0831 35.8106C21.0722 35.8106 21.061 35.8106 21.0502 35.8106L14.6781 35.7482C14.3272 35.731 14.049 35.4363 14.049 35.0735C14.049 34.7156 14.3218 34.4209 14.6727 34.3982L22.4363 34.3926C22.4589 34.3926 22.4867 34.3926 22.5093 34.3871H22.5368C23.8456 34.2679 24.8594 33.1335 24.8594 31.7951C24.8594 30.4567 23.8402 29.3221 22.5368 29.2032C22.5313 29.2032 22.5259 29.2032 22.5259 29.2032C22.5202 29.2032 22.5147 29.2032 22.5093 29.2032C22.4976 29.2032 22.4867 29.2032 22.4701 29.2032C22.4589 29.2032 22.448 29.2032 22.4309 29.2032L13.6701 29.1976V28.358C13.6701 27.0819 13.0573 25.8741 12.0326 25.1365C8.60749 22.6637 7.15924 18.2968 8.41775 14.2642C9.68796 10.198 13.3584 7.46384 17.552 7.46384C21.7462 7.46384 25.4164 10.198 26.6861 14.2642C27.9563 18.3306 26.5137 22.7206 23.0995 25.1877C22.6707 25.4938 22.5705 26.0951 22.8768 26.5317C23.0605 26.7986 23.3556 26.9403 23.6507 26.9403C23.8402 26.9403 24.0297 26.8835 24.1965 26.7643C26.196 25.3183 27.6663 23.3046 28.4463 20.94C29.2259 18.569 29.2425 16.0622 28.4961 13.6859C27.7556 11.2922 26.3131 9.2563 24.3359 7.78153Z" fill="white"/>
<path d="M4.38878 16.4534H1.38122C0.952463 16.4534 0.601562 16.8108 0.601562 17.2474C0.601562 17.684 0.952463 18.0413 1.38122 18.0413H4.38878C4.81754 18.0413 5.16844 17.684 5.16844 17.2474C5.16844 16.8052 4.82298 16.4534 4.38878 16.4534Z" fill="white"/>
<path d="M17.5377 4.65053C17.9662 4.65053 18.3174 4.2932 18.3174 3.85659V0.794216C18.3174 0.357328 17.9662 0 17.5377 0C17.1087 0 16.7578 0.357328 16.7578 0.794216V3.85659C16.7578 4.29902 17.103 4.65053 17.5377 4.65053Z" fill="white"/>
<path d="M8.24163 8.57526C8.43627 8.57526 8.6369 8.5018 8.78744 8.3485C9.09343 8.04245 9.09942 7.53709 8.7986 7.22578L6.68749 5.01944C6.38668 4.7073 5.89122 4.70176 5.5847 5.00835C5.27844 5.31412 5.273 5.81893 5.57381 6.13107L7.68465 8.33741C7.84037 8.49597 8.041 8.57526 8.24163 8.57526Z" fill="white"/>
<path d="M28.4349 5.02516L26.324 7.2315C26.0229 7.54365 26.0284 8.04817 26.3349 8.35449C26.4852 8.50752 26.6858 8.58098 26.881 8.58098C27.0816 8.58098 27.2877 8.50197 27.438 8.34313L29.5488 6.13707C29.8493 5.82492 29.8439 5.3204 29.5376 5.01407C29.2257 4.70193 28.7357 4.71302 28.4349 5.02516Z" fill="white"/>
<path d="M33.7493 16.4534H30.6859C30.2572 16.4534 29.9062 16.8108 29.9062 17.2474C29.9062 17.684 30.2572 18.0413 30.6859 18.0413H33.7493C34.178 18.0413 34.5289 17.684 34.5289 17.2474C34.5289 16.8052 34.178 16.4534 33.7493 16.4534Z" fill="white"/>
</svg>
