<svg width="39" height="36" viewBox="0 0 39 36" fill="none" xmlns="http://www.w3.org/2000/svg">
<path d="M38.0651 28.5987H14.8504L13.9818 25.3613H33.0116C33.3274 25.3613 33.6433 25.1244 33.7222 24.8875L38.8547 12.0168C38.9337 11.7799 38.9337 11.464 38.7758 11.3061C38.6179 11.0692 38.381 10.9903 38.1441 10.9903H34.5908C34.117 5.30504 29.4583 0.883181 23.7731 0.883181C18.0878 0.883181 23.7731 0.883181 23.6941 0.883181C18.1668 0.883181 13.3501 5.14711 12.9553 10.9903H10.0337L7.34902 1.12007C7.27006 0.725258 6.95422 0.488373 6.55941 0.488373H1.74274C1.26897 0.488373 0.953125 0.80422 0.953125 1.27799C0.953125 1.75176 1.26897 2.06761 1.74274 2.06761H6.00667L13.508 29.5463C13.587 29.8621 13.9028 30.099 14.2977 30.099H15.8769C15.4821 30.6517 15.2452 31.3624 15.2452 32.152C15.2452 34.1261 16.9034 35.7843 18.8774 35.7843C20.8515 35.7843 22.5097 34.1261 22.5097 32.152C22.5097 31.3624 22.2728 30.7307 21.878 30.099H30.4848C30.09 30.6517 29.8531 31.3624 29.8531 32.152C29.8531 34.1261 31.5113 35.7843 33.4854 35.7843C35.4594 35.7843 37.1176 34.1261 37.1176 32.152C37.1176 31.3624 36.8807 30.7307 36.4859 30.099H38.0651C38.5389 30.099 38.8547 29.7832 38.8547 29.3094C38.8547 28.8356 38.4599 28.5987 38.0651 28.5987ZM32.9326 10.9113H29.6162C29.6162 10.1217 29.5373 9.25312 29.3793 8.54247H32.3799C32.6957 9.25312 32.8537 10.1217 32.9326 10.9113ZM29.3793 14.8594C29.5373 14.0698 29.6162 13.2802 29.6162 12.4906H32.9326C32.8537 13.3591 32.6957 14.1487 32.3799 14.8594H29.3793ZM31.6692 16.4386C30.7217 18.0968 29.2214 19.3602 27.4843 20.1498C28.1949 19.1233 28.7476 17.8599 29.0635 16.4386H31.6692ZM31.6692 6.96323H29.0635C28.6687 5.46296 28.116 4.19957 27.4843 3.25203C29.2214 3.96269 30.7217 5.30504 31.6692 6.96323ZM24.5627 2.62034C25.7471 3.09411 26.8526 4.67334 27.4843 6.96323H24.5627V2.62034ZM24.5627 8.54247H27.8001C27.958 9.25312 28.037 10.0427 28.037 10.9113H24.4837V8.54247H24.5627ZM24.5627 12.4906H28.116C28.116 13.3591 27.958 14.1487 27.8791 14.8594H24.6416V12.4906H24.5627ZM24.5627 16.4386H27.4843C26.8526 18.7285 25.7471 20.3078 24.5627 20.7815V16.4386ZM22.9834 2.62034V6.96323H20.0619C20.6936 4.67334 21.799 3.09411 22.9834 2.62034ZM19.6671 14.8594C19.5091 14.1487 19.4302 13.2802 19.4302 12.4906H22.9834V14.8594H19.6671ZM22.9834 16.4386V20.7815C21.799 20.3078 20.6936 18.7285 20.0619 16.4386H22.9834ZM18.4037 16.4386C18.7985 17.9389 19.3512 19.2023 19.9829 20.1498C18.2457 19.3602 16.7455 18.0179 15.7979 16.4386H18.4037ZM15.0873 14.8594C14.8504 14.0698 14.6135 13.2802 14.5345 12.4906H17.8509C17.8509 13.2802 17.9299 14.1487 18.0878 14.8594H15.0873ZM19.4302 10.9113C19.4302 10.0427 19.5881 9.25312 19.6671 8.54247H22.9045V10.9113H19.4302ZM19.9829 3.17307C19.2722 4.19957 18.7195 5.46296 18.4037 6.88427H15.7979C16.7455 5.30504 18.2457 3.96269 19.9829 3.17307ZM15.0873 8.54247H18.0878C17.9299 9.33209 17.9299 10.1217 17.8509 10.9113H14.5345C14.6135 10.1217 14.7714 9.25312 15.0873 8.54247ZM13.508 23.7821L10.4285 12.4906H12.9553C13.3501 18.2548 18.1668 22.5187 23.6941 22.5977H23.7731C29.3004 22.5977 34.117 18.2548 34.5119 12.4906H36.8807L32.3799 23.7821H13.508ZM18.7985 34.284C17.693 34.284 16.7455 33.3364 16.7455 32.231C16.7455 31.1255 17.693 30.178 18.7985 30.178C19.9039 30.178 20.8515 31.1255 20.8515 32.231C20.8515 33.3364 19.9039 34.284 18.7985 34.284ZM33.3274 34.284C32.222 34.284 31.2744 33.3364 31.2744 32.231C31.2744 31.1255 32.222 30.178 33.3274 30.178C34.4329 30.178 35.3804 31.1255 35.3804 32.231C35.3804 33.3364 34.5119 34.284 33.3274 34.284Z" fill="white"/>
</svg>
