<svg width="48" height="46" viewBox="0 0 48 46" fill="none" xmlns="http://www.w3.org/2000/svg">
<rect width="47.7571" height="46" rx="23" fill="#5167DA"/>
<path d="M36.5186 24.6167L32.9412 22.4702C32.8348 22.4264 32.7161 22.4225 32.607 22.4593C32.4979 22.4961 32.4058 22.5711 32.3477 22.6704C32.2896 22.7698 32.2694 22.8869 32.2908 23C32.3122 23.1131 32.3738 23.2146 32.4642 23.2859L35.8031 25.294V31.6665L30.0793 34.9767L26.7023 33.1332C26.5913 33.0725 26.4607 33.0583 26.3393 33.0939C26.2178 33.1294 26.1155 33.2118 26.0548 33.3228C25.9941 33.4338 25.9799 33.5644 26.0155 33.6858C26.051 33.8072 26.1334 33.9096 26.2444 33.9703L29.8408 35.9426C29.914 35.9822 29.9962 36.0019 30.0793 35.9999C30.1631 35.9997 30.2454 35.9775 30.3178 35.9355L36.5186 32.3581C36.591 32.3163 36.6512 32.2561 36.6931 32.1837C36.7349 32.1113 36.757 32.0291 36.7571 31.9455V25.0245C36.7562 24.9416 36.7337 24.8605 36.6919 24.789C36.6501 24.7175 36.5903 24.6581 36.5186 24.6167ZM21.0357 33.1022L17.6968 34.8456L11.954 31.5973V25.294L15.2929 23.2859C15.3559 23.2599 15.4126 23.2207 15.4592 23.1709C15.5059 23.1211 15.5412 23.062 15.563 22.9973C15.5848 22.9327 15.5925 22.8642 15.5856 22.7964C15.5786 22.7285 15.5572 22.663 15.5228 22.6041C15.4884 22.5452 15.4418 22.4944 15.386 22.4551C15.3303 22.4158 15.2668 22.3889 15.1998 22.3762C15.1328 22.3635 15.0639 22.3654 14.9976 22.3816C14.9314 22.3978 14.8694 22.428 14.8159 22.4702L11.2385 24.6167C11.1668 24.6581 11.107 24.7175 11.0652 24.789C11.0234 24.8605 11.0009 24.9416 11 25.0245V31.8763C10.9997 31.9604 11.0216 32.043 11.0634 32.1159C11.1053 32.1888 11.1657 32.2493 11.2385 32.2913L17.4393 35.8043C17.5122 35.8449 17.5943 35.8662 17.6778 35.8663C17.7542 35.8659 17.8295 35.8471 17.8972 35.8115L21.4746 33.9488C21.5833 33.8887 21.6642 33.7885 21.7002 33.6695C21.7361 33.5506 21.7242 33.4223 21.6671 33.312C21.6099 33.2017 21.5119 33.118 21.394 33.0789C21.2761 33.0397 21.1476 33.048 21.0357 33.1022ZM17.6778 18.5852C17.8043 18.5852 17.9256 18.535 18.015 18.4455C18.1045 18.356 18.1547 18.2347 18.1547 18.1082V14.3305L23.8785 11.0274L29.6023 14.3305V18.1082C29.6023 18.2347 29.6526 18.356 29.742 18.4455C29.8315 18.535 29.9528 18.5852 30.0793 18.5852C30.2058 18.5852 30.3272 18.535 30.4166 18.4455C30.5061 18.356 30.5563 18.2347 30.5563 18.1082V14.0539C30.5562 13.9702 30.5341 13.8881 30.4923 13.8157C30.4504 13.7432 30.3903 13.6831 30.3178 13.6413L24.117 10.0639C24.0445 10.022 23.9623 10 23.8785 10C23.7948 10 23.7126 10.022 23.6401 10.0639L17.4393 13.6413C17.3668 13.6831 17.3067 13.7432 17.2648 13.8157C17.2229 13.8881 17.2009 13.9702 17.2008 14.0539V18.1082C17.2008 18.2347 17.251 18.356 17.3405 18.4455C17.4299 18.535 17.5513 18.5852 17.6778 18.5852Z" fill="white"/>
<path d="M30.5587 28.6018V21.4471C30.5586 21.3634 30.5365 21.2813 30.4946 21.2088C30.4528 21.1364 30.3926 21.0763 30.3202 21.0345L24.1194 17.4571C24.0469 17.4152 23.9646 17.3932 23.8809 17.3932C23.7972 17.3932 23.7149 17.4152 23.6424 17.4571L17.4416 21.0345C17.3692 21.0763 17.309 21.1364 17.2672 21.2088C17.2253 21.2813 17.2032 21.3634 17.2031 21.4471V28.6018C17.2032 28.6854 17.2253 28.7676 17.2672 28.84C17.309 28.9124 17.3692 28.9726 17.4416 29.0144L23.6424 32.5918C23.7149 32.6336 23.7972 32.6557 23.8809 32.6557C23.9646 32.6557 24.0469 32.6336 24.1194 32.5918L30.3202 29.0144C30.3926 28.9726 30.4528 28.9124 30.4946 28.84C30.5365 28.7676 30.5586 28.6854 30.5587 28.6018ZM23.8809 18.4158L29.1062 21.4327L23.8809 24.4711L18.6698 21.4256L23.8809 18.4158ZM18.1571 22.2317L23.4039 25.2987V31.3588L18.1571 28.3299V22.2317ZM24.3579 31.3588V25.2987L29.6047 22.246V28.3275L24.3579 31.3588Z" fill="white"/>
</svg>
