<svg width="50" height="46" viewBox="0 0 50 46" fill="none" xmlns="http://www.w3.org/2000/svg">
<rect width="49.1687" height="46" rx="23" fill="#FF0404"/>
<path fill-rule="evenodd" clip-rule="evenodd" d="M23.6204 23.767L27.7617 19.6257C27.8911 19.4963 28.1013 19.4963 28.2308 19.6257C28.3602 19.7552 28.3602 19.966 28.2308 20.0954L23.855 24.4712C23.793 24.5338 23.7084 24.5686 23.6204 24.5686C23.5324 24.5686 23.4478 24.5338 23.3858 24.4712L20.8903 21.9763C20.7609 21.8468 20.7609 21.6361 20.8903 21.5072C21.0203 21.3777 21.2306 21.3777 21.36 21.5072L23.6204 23.767ZM16.4216 25.914L14.674 26.923C14.5152 27.0149 14.4605 27.2173 14.5523 27.3761C14.6137 27.4829 14.7254 27.5421 14.84 27.5421C14.8964 27.5421 14.9534 27.5277 15.0059 27.4978L16.7535 26.4888C16.9123 26.3975 16.9665 26.1945 16.8752 26.0351C16.8534 25.9974 16.8243 25.9643 16.7897 25.9378C16.7551 25.9113 16.7156 25.8918 16.6735 25.8806C16.6313 25.8693 16.5874 25.8665 16.5442 25.8722C16.501 25.878 16.4593 25.8922 16.4216 25.914ZM15.3506 21.2522H13.3319C13.1488 21.2522 13 21.401 13 21.5841C13 21.7672 13.1488 21.916 13.3319 21.916H15.3506C15.5337 21.916 15.6825 21.7672 15.6825 21.5841C15.6825 21.401 15.5331 21.2522 15.3506 21.2522ZM16.7535 16.6794L15.0059 15.6703C14.8466 15.5791 14.6441 15.6333 14.5523 15.792C14.4605 15.9508 14.5152 16.1538 14.674 16.2451L16.4216 17.2542C16.4741 17.2846 16.5311 17.2984 16.5875 17.2984C16.702 17.2984 16.8138 17.2392 16.8752 17.1324C16.9665 16.9742 16.9117 16.7712 16.7535 16.6794ZM20.2553 13.421L19.2457 11.6729C19.1544 11.5141 18.9514 11.4599 18.7926 11.5512C18.6338 11.643 18.5791 11.846 18.6709 12.0048L19.6799 13.7529C19.724 13.8292 19.7965 13.8848 19.8816 13.9077C19.9666 13.9305 20.0573 13.9186 20.1336 13.8746C20.2918 13.7828 20.346 13.5798 20.2553 13.421ZM24.916 12.35V10.3319C24.916 10.1488 24.7672 10 24.5841 10C24.401 10 24.2522 10.1488 24.2522 10.3319V12.35C24.2522 12.5337 24.401 12.6819 24.5841 12.6819C24.7672 12.6819 24.916 12.5331 24.916 12.35ZM29.4888 13.7529L30.4978 12.0048C30.5897 11.846 30.5349 11.643 30.3761 11.5512C30.2173 11.4599 30.0143 11.5141 29.923 11.6729L28.9134 13.421C28.8696 13.4973 28.8577 13.5879 28.8805 13.673C28.9034 13.758 28.959 13.8305 29.0352 13.8746C29.0877 13.9045 29.1447 13.9189 29.2011 13.9189C29.3162 13.9189 29.4279 13.8597 29.4888 13.7529ZM32.7471 17.2547L34.4947 16.2457C34.6529 16.1544 34.7094 15.9514 34.617 15.7926C34.5246 15.6338 34.3232 15.5796 34.1628 15.6709L32.4158 16.6799C32.3396 16.7239 32.284 16.7963 32.2612 16.8813C32.2383 16.9662 32.2502 17.0568 32.2941 17.133C32.3555 17.2398 32.4672 17.299 32.5817 17.299C32.6382 17.299 32.6951 17.2846 32.7471 17.2547ZM33.8187 21.916H35.8368C36.0199 21.916 36.1687 21.7672 36.1687 21.5841C36.1687 21.4004 36.0199 21.2522 35.8368 21.2522H33.8187C33.6356 21.2522 33.4868 21.401 33.4868 21.5841C33.4862 21.7672 33.635 21.916 33.8187 21.916ZM32.4158 26.4888L34.1628 27.4978C34.2148 27.5282 34.2734 27.5421 34.3299 27.5421C34.4427 27.5421 34.5556 27.4829 34.617 27.3761C34.7094 27.2173 34.6529 27.0143 34.4947 26.923L32.7471 25.914C32.5884 25.8222 32.3853 25.8769 32.2935 26.0351C32.2499 26.1116 32.2382 26.2022 32.2611 26.2872C32.284 26.3722 32.3396 26.4446 32.4158 26.4888ZM27.1792 33.6461H22.0189V34.5064L23.128 35.6122C23.3549 35.8379 23.9307 35.9939 24.5619 36H24.6007C25.2352 36 25.7989 35.8479 26.044 35.6094L27.1792 34.5041V33.6461ZM27.1792 31.363H22.0189V32.9823H27.1792V31.363ZM29.1115 27.5282C30.359 26.0728 31.6485 24.5681 31.5815 21.7047V21.6969C31.5815 17.8389 28.4427 14.7 24.5846 14.7C20.7266 14.7 17.5877 17.8389 17.5877 21.6969V21.7047C17.5208 24.5681 18.8108 26.0728 20.0578 27.5282C20.8997 28.5102 21.6986 29.4418 21.9652 30.6998H27.204C27.4707 29.4418 28.2695 28.5102 29.1115 27.5282Z" fill="white"/>
</svg>
