<svg width="25" height="41" viewBox="0 0 25 41" fill="none" xmlns="http://www.w3.org/2000/svg">
<path d="M21.38 0.065094H3.96602C3.07818 0.0661575 2.22701 0.419322 1.59921 1.04712C0.971415 1.67492 0.618251 2.52609 0.617188 3.41393V36.9023C0.618251 37.7901 0.971415 38.6413 1.59921 39.2691C2.22701 39.8969 3.07818 40.2501 3.96602 40.2511H21.38C22.2678 40.2501 23.119 39.8969 23.7468 39.2691C24.3746 38.6413 24.7277 37.7901 24.7288 36.9023V3.41393C24.7277 2.52609 24.3746 1.67492 23.7468 1.04712C23.119 0.419322 22.2678 0.0661575 21.38 0.065094ZM8.6544 1.40463H16.6916V2.0744C16.6916 2.25203 16.621 2.42239 16.4954 2.54799C16.3698 2.6736 16.1995 2.74416 16.0218 2.74416H9.32416C9.14653 2.74416 8.97617 2.6736 8.85057 2.54799C8.72496 2.42239 8.6544 2.25203 8.6544 2.0744V1.40463ZM23.3893 36.9023C23.3893 37.4352 23.1776 37.9463 22.8008 38.3231C22.4239 38.6999 21.9129 38.9116 21.38 38.9116H3.96602C3.43312 38.9116 2.92205 38.6999 2.54523 38.3231C2.16842 37.9463 1.95672 37.4352 1.95672 36.9023V3.41393C1.95672 2.88103 2.16842 2.36996 2.54523 1.99314C2.92205 1.61632 3.43312 1.40463 3.96602 1.40463H7.31486V2.0744C7.31486 2.6073 7.52655 3.11837 7.90337 3.49519C8.28019 3.872 8.79126 4.0837 9.32416 4.0837H16.0218C16.5547 4.0837 17.0658 3.872 17.4426 3.49519C17.8194 3.11837 18.0311 2.6073 18.0311 2.0744V1.40463H21.38C21.9129 1.40463 22.4239 1.61632 22.8008 1.99314C23.1776 2.36996 23.3893 2.88103 23.3893 3.41393V36.9023Z" fill="white"/>
<path d="M17.359 36.2327H7.98227C7.80463 36.2327 7.63428 36.3033 7.50867 36.4289C7.38306 36.5545 7.3125 36.7249 7.3125 36.9025C7.3125 37.0801 7.38306 37.2505 7.50867 37.3761C7.63428 37.5017 7.80463 37.5723 7.98227 37.5723H17.359C17.5366 37.5723 17.707 37.5017 17.8326 37.3761C17.9582 37.2505 18.0288 37.0801 18.0288 36.9025C18.0288 36.7249 17.9582 36.5545 17.8326 36.4289C17.707 36.3033 17.5366 36.2327 17.359 36.2327Z" fill="white"/>
<path d="M18.1493 8.07614C18.3269 8.07614 18.4973 8.00557 18.6229 7.87997C18.7485 7.75436 18.8191 7.584 18.8191 7.40637C18.8191 7.22874 18.7485 7.05838 18.6229 6.93277C18.4973 6.80717 18.3269 6.7366 18.1493 6.7366H14.1307C13.9531 6.7366 13.7827 6.80717 13.6571 6.93277C13.5315 7.05838 13.4609 7.22874 13.4609 7.40637C13.4609 7.584 13.5315 7.75436 13.6571 7.87997C13.7827 8.00557 13.9531 8.07614 14.1307 8.07614H15.4702V13.4343H14.1307C13.9531 13.4343 13.7827 13.5048 13.6571 13.6304C13.5315 13.7561 13.4609 13.9264 13.4609 14.104C13.4609 14.2817 13.5315 14.452 13.6571 14.5776C13.7827 14.7032 13.9531 14.7738 14.1307 14.7738H18.1493C18.3269 14.7738 18.4973 14.7032 18.6229 14.5776C18.7485 14.452 18.8191 14.2817 18.8191 14.104C18.8191 13.9264 18.7485 13.7561 18.6229 13.6304C18.4973 13.5048 18.3269 13.4343 18.1493 13.4343H16.8098V8.07614H18.1493Z" fill="white"/>
<path d="M7.3182 24.8468C7.14057 24.8468 6.97021 24.9173 6.84461 25.0429C6.719 25.1685 6.64844 25.3389 6.64844 25.5165V30.2049C6.64844 30.9154 6.9307 31.5969 7.43312 32.0993C7.93554 32.6017 8.61697 32.884 9.32751 32.884C10.038 32.884 10.7195 32.6017 11.2219 32.0993C11.7243 31.5969 12.0066 30.9154 12.0066 30.2049V25.5165C12.0066 25.3389 11.936 25.1685 11.8104 25.0429C11.6848 24.9173 11.5144 24.8468 11.3368 24.8468C11.1592 24.8468 10.9888 24.9173 10.8632 25.0429C10.7376 25.1685 10.667 25.3389 10.667 25.5165V30.2049C10.667 30.5602 10.5259 30.9009 10.2747 31.1521C10.0235 31.4033 9.68277 31.5444 9.32751 31.5444C8.97224 31.5444 8.63152 31.4033 8.38031 31.1521C8.1291 30.9009 7.98797 30.5602 7.98797 30.2049V25.5165C7.98797 25.3389 7.91741 25.1685 7.7918 25.0429C7.6662 24.9173 7.49584 24.8468 7.3182 24.8468Z" fill="white"/>
<path d="M9.32751 14.7996C10.038 14.7996 10.7195 14.5174 11.2219 14.0149C11.7243 13.5125 12.0066 12.8311 12.0066 12.1206V7.43219C12.0066 7.25455 11.936 7.0842 11.8104 6.95859C11.6848 6.83299 11.5144 6.76242 11.3368 6.76242C11.1592 6.76242 10.9888 6.83299 10.8632 6.95859C10.7376 7.0842 10.667 7.25455 10.667 7.43219V12.1206C10.667 12.4758 10.5259 12.8165 10.2747 13.0678C10.0235 13.319 9.68277 13.4601 9.32751 13.4601C8.97224 13.4601 8.63152 13.319 8.38031 13.0678C8.1291 12.8165 7.98797 12.4758 7.98797 12.1206V7.43219C7.98797 7.25455 7.91741 7.0842 7.7918 6.95859C7.6662 6.83299 7.49584 6.76242 7.3182 6.76242C7.14057 6.76242 6.97021 6.83299 6.84461 6.95859C6.719 7.0842 6.64844 7.25455 6.64844 7.43219V12.1206C6.64844 12.8311 6.9307 13.5125 7.43312 14.0149C7.93554 14.5174 8.61697 14.7996 9.32751 14.7996Z" fill="white"/>
<path d="M13.7856 32.7985C13.9379 32.8899 14.1202 32.9172 14.2925 32.8742C14.4648 32.8313 14.613 32.7216 14.7045 32.5694L16.1399 30.1777L17.5752 32.5694C17.6683 32.7182 17.8161 32.8245 17.9868 32.8654C18.1575 32.9064 18.3375 32.8786 18.4879 32.7882C18.6384 32.6978 18.7473 32.5519 18.7913 32.382C18.8353 32.212 18.8108 32.0316 18.7232 31.8796L16.9208 28.8757L18.7232 25.8718C18.8108 25.7197 18.8353 25.5393 18.7913 25.3693C18.7473 25.1994 18.6384 25.0535 18.4879 24.9631C18.3375 24.8727 18.1575 24.845 17.9868 24.8859C17.8161 24.9268 17.6683 25.0331 17.5752 25.1819L16.1399 27.5736L14.7045 25.1819C14.6114 25.0331 14.4636 24.9268 14.2929 24.8859C14.1222 24.845 13.9423 24.8727 13.7918 24.9631C13.6413 25.0535 13.5324 25.1994 13.4884 25.3693C13.4444 25.5393 13.4689 25.7197 13.5566 25.8718L15.3589 28.8757L13.5566 31.8796C13.4651 32.0318 13.4379 32.2141 13.4808 32.3865C13.5238 32.5588 13.6334 32.707 13.7856 32.7985Z" fill="white"/>
<path d="M20.5254 16.8357L4.45098 21.5241C4.36655 21.5487 4.28779 21.5897 4.2192 21.6448C4.15062 21.6999 4.09355 21.7679 4.05126 21.845C4.00897 21.9221 3.98228 22.0068 3.97272 22.0943C3.96316 22.1817 3.97091 22.2702 3.99554 22.3546C4.02017 22.439 4.06118 22.5178 4.11625 22.5864C4.17132 22.655 4.23935 22.712 4.31647 22.7543C4.39359 22.7966 4.47829 22.8233 4.56572 22.8329C4.65315 22.8424 4.74162 22.8347 4.82605 22.81L20.9005 18.1217C21.071 18.0719 21.2148 17.9565 21.3002 17.8007C21.3856 17.645 21.4056 17.4617 21.3559 17.2912C21.3062 17.1206 21.1907 16.9768 21.035 16.8914C20.8792 16.806 20.6959 16.786 20.5254 16.8357Z" fill="white"/>
</svg>
