<svg width="33" height="33" viewBox="0 0 33 33" fill="none" xmlns="http://www.w3.org/2000/svg">
<path d="M29.5876 0.976746H3.23227C1.68262 0.976746 0.421875 2.23749 0.421875 3.78714V30.0175C0.421875 31.5672 1.68262 32.8279 3.23227 32.8279H29.5876C31.1372 32.8279 32.3979 31.5672 32.3979 30.0175V3.78714C32.3979 2.23749 31.1372 0.976746 29.5876 0.976746ZM3.23227 2.85034H29.5876C30.1041 2.85034 30.5243 3.27059 30.5243 3.78714V8.47114H2.29547V3.78714C2.29547 3.27059 2.71572 2.85034 3.23227 2.85034ZM29.5876 30.9543H3.23227C2.71572 30.9543 2.29547 30.5341 2.29547 30.0175V10.3447H30.5243V30.0175C30.5243 30.5341 30.1041 30.9543 29.5876 30.9543Z" fill="white"/>
<path d="M19.5909 13.2307C19.1154 13.0269 18.5646 13.2472 18.3609 13.7227L12.7401 26.8379C12.5362 27.3134 12.7566 27.8642 13.2321 28.068C13.7078 28.2718 14.2584 28.0514 14.4622 27.576L20.0829 14.4608C20.2868 13.9852 20.0665 13.4345 19.5909 13.2307Z" fill="white"/>
<path d="M11.5161 16.3171C11.1929 15.9131 10.6033 15.8477 10.1994 16.1709L5.51543 19.9181C5.0471 20.2926 5.04678 21.0063 5.51543 21.3811L10.1994 25.1283C10.6034 25.4516 11.1931 25.386 11.5161 24.982C11.8393 24.578 11.7739 23.9885 11.3698 23.6653L7.60025 20.6496L11.3698 17.6339C11.7739 17.3107 11.8393 16.7212 11.5161 16.3171Z" fill="white"/>
<path d="M27.2998 19.9181L22.6158 16.1709C22.2118 15.8476 21.6222 15.9132 21.2991 16.3172C20.9759 16.7212 21.0413 17.3107 21.4454 17.6339L25.215 20.6496L21.4454 23.6653C21.0413 23.9885 20.9759 24.578 21.2991 24.982C21.6227 25.3864 22.2123 25.4511 22.6158 25.1283L27.2998 21.3811C27.7681 21.0065 27.7684 20.2929 27.2998 19.9181Z" fill="white"/>
<path d="M5.17117 6.59754C5.68855 6.59754 6.10797 6.17812 6.10797 5.66074C6.10797 5.14336 5.68855 4.72394 5.17117 4.72394C4.65379 4.72394 4.23438 5.14336 4.23438 5.66074C4.23438 6.17812 4.65379 6.59754 5.17117 6.59754Z" fill="white"/>
<path d="M8.91336 6.59754C9.43074 6.59754 9.85016 6.17812 9.85016 5.66074C9.85016 5.14336 9.43074 4.72394 8.91336 4.72394C8.39598 4.72394 7.97656 5.14336 7.97656 5.66074C7.97656 6.17812 8.39598 6.59754 8.91336 6.59754Z" fill="white"/>
<path d="M12.6634 6.59754C13.1807 6.59754 13.6002 6.17812 13.6002 5.66074C13.6002 5.14336 13.1807 4.72394 12.6634 4.72394C12.146 4.72394 11.7266 5.14336 11.7266 5.66074C11.7266 6.17812 12.146 6.59754 12.6634 6.59754Z" fill="white"/>
</svg>
